{"title":"Deep Blue Sea.1999.DVDRip.x264.AC3[5.1]-VGL","uid":4875700,"size":1299528521,"categoryP":"video","categoryS":"movies","magnet":"?xt=urn:btih:5208a267809e04e11b82d9db72695b110ab6648b&amp;dn=Deep+Blue+Sea.1999.DVDRip.x264.AC3%5B5.1%5D-VGL&amp;tr=udp%3A%2F%2Ftracker.openbittorrent.com%3A80&amp;tr=udp%3A%2F%2Fopen.demonii.com%3A1337&amp;tr=udp%3A%2F%2Ftracker.coppersurfer.tk%3A6969&amp;tr=udp%3A%2F%2Fexodus.desync.com%3A6969","seeders":1,"leechers":0,"uploader":"esterz","files":-1,"time":1241115528,"description":"                     &lt;a href=&quot; http://www.imdb.com/title/tt0149261/&quot; rel=&quot;nofollow&quot; target=&quot;_NEW&quot;&gt; http://www.imdb.com/title/tt0149261/&lt;/a&gt;\n\n                   Deep Blue Sea.1999.DVDRip.x264.AC3[5.1]-VGL\n\n\n\nMovie Title: Deep Blue Sea\n\nDirector: Renny Harlin\n\nCast: Thomas Jane, Saffron Burrows, Samuel L. Jackson, LL Cool J\n\n\n\n\nThis is a DVDRip of the film in MKV format (Matroska container). You will need VLC Player to view the movie.\n\nFor even better results, and in order to enable H.264 playback in Windows Media Player the following software is suggested:\n\nCoreAVC\nHaali Media Splitter\nAC3 Filter\nVobSub &amp; VSFilter (For the Subtitles)\n\nRecommended Codec Pack: CCCP - Combined Community Codec Pack\n\n\n\n\nLanguage: English\n\nOptional Subtitles [Included in the Matroska Container]:\nEnglish, Spanish, French, German, Italian, Dutch, Portuguese, Greek, Swedish, Danish\n\n\n\nGeneral\nFormat                           : Matroska\nFile size                        : 1.21 GiB\nDuration                         : 1h 43mn\nOverall bit rate                 : 1 678 Kbps\nMkv Chapters Option              : Yes (33 Chapters)\n\nVideo\nID                               : 1\nFormat                           : AVC\nFormat/Info                      : Advanced Video Codec\nFormat profile                   : &lt;a class=&quot;__cf_email__&quot; href=&quot;/cdn-cgi/l/email-protection&quot; data-cfemail=&quot;81c9e8e6e9c1cdb2afb0&quot;&gt;[email&amp;#160;protected]&lt;/a&gt;&lt;script cf-hash='f9e31' type=&quot;text/javascript&quot;&gt;\n/* &lt;![CDATA[ */!function(){try{var t=&quot;currentScript&quot;in document?document.currentScript:function(){for(var t=document.getElementsByTagName(&quot;script&quot;),e=t.length;e--;)if(t[e].getAttribute(&quot;cf-hash&quot;))return t[e]}();if(t&amp;&amp;t.previousSibling){var e,r,n,i,c=t.previousSibling,a=c.getAttribute(&quot;data-cfemail&quot;);if(a){for(e=&quot;&quot;,r=parseInt(a.substr(0,2),16),n=2;a.length-n;n+=2)i=parseInt(a.substr(n,2),16)^r,e+=String.fromCharCode(i);e=document.createTextNode(e),c.parentNode.replaceChild(e,c)}}}catch(u){}}();/* ]]&gt; */&lt;/script&gt;\nFormat settings, CABAC           : Yes\nFormat settings, ReFrames        : 6 frames\nMuxing mode                      : Container profile=&lt;a class=&quot;__cf_email__&quot; href=&quot;/cdn-cgi/l/email-protection&quot; data-cfemail=&quot;bce9d2d7d2d3cbd2fc8f928d&quot;&gt;[email&amp;#160;protected]&lt;/a&gt;&lt;script cf-hash='f9e31' type=&quot;text/javascript&quot;&gt;\n/* &lt;![CDATA[ */!function(){try{var t=&quot;currentScript&quot;in document?document.currentScript:function(){for(var t=document.getElementsByTagName(&quot;script&quot;),e=t.length;e--;)if(t[e].getAttribute(&quot;cf-hash&quot;))return t[e]}();if(t&amp;&amp;t.previousSibling){var e,r,n,i,c=t.previousSibling,a=c.getAttribute(&quot;data-cfemail&quot;);if(a){for(e=&quot;&quot;,r=parseInt(a.substr(0,2),16),n=2;a.length-n;n+=2)i=parseInt(a.substr(n,2),16)^r,e+=String.fromCharCode(i);e=document.createTextNode(e),c.parentNode.replaceChild(e,c)}}}catch(u){}}();/* ]]&gt; */&lt;/script&gt;\nCodec ID                         : V_MPEG4/ISO/AVC\nDuration                         : 1h 43mn\nBit rate                         : 1 250 Kbps\nNominal bit rate                 : 1 300 Kbps\nWidth                            : 720 pixels\nHeight                           : 288 pixels\nDisplay aspect ratio             : 2.500\nFrame rate                       : 25.000 fps\nResolution                       : 24 bits\nColorimetry                      : 4:2:0\nScan type                        : Progressive\nBits/(Pixel*Frame)               : 0.241\nStream size                      : 924 MiB (75%)\nWriting library                  : x264 core 67 r1145M d2e1e1c\n\nAudio\nID                               : 2\nFormat                           : AC-3\nFormat/Info                      : Audio Coding 3\nCodec ID                         : A_AC3\nDuration                         : 1h 43mn\nBit rate mode                    : Constant\nBit rate                         : 384 Kbps\nChannel(s)                       : 6 channels\nChannel positions                : Front: L C R, Surround: L R, LFE\nSampling rate                    : 48.0 KHz\nStream size                      : 284 MiB (23%)\nLanguage                         : English\n\n\n\n\nScreenshots: &lt;a href=&quot;\nhttp://i544.photobucket.com/albums/hh330/asterastrip/DBS/1.png&quot; rel=&quot;nofollow&quot; target=&quot;_NEW&quot;&gt;\nhttp://i544.photobucket.com/albums/hh330/asterastrip/DBS/1.png&lt;/a&gt; &lt;a href=&quot;\nhttp://i544.photobucket.com/albums/hh330/asterastrip/DBS/2.png&quot; rel=&quot;nofollow&quot; target=&quot;_NEW&quot;&gt;\nhttp://i544.photobucket.com/albums/hh330/asterastrip/DBS/2.png&lt;/a&gt; &lt;a href=&quot;\nhttp://i544.photobucket.com/albums/hh330/asterastrip/DBS/3.png&quot; rel=&quot;nofollow&quot; target=&quot;_NEW&quot;&gt;\nhttp://i544.photobucket.com/albums/hh330/asterastrip/DBS/3.png&lt;/a&gt; &lt;a href=&quot;\nhttp://i544.photobucket.com/albums/hh330/asterastrip/DBS/4.png&quot; rel=&quot;nofollow&quot; target=&quot;_NEW&quot;&gt;\nhttp://i544.photobucket.com/albums/hh330/asterastrip/DBS/4.png&lt;/a&gt; &lt;a href=&quot;\nhttp://i544.photobucket.com/albums/hh330/asterastrip/DBS/5.png&quot; rel=&quot;nofollow&quot; target=&quot;_NEW&quot;&gt;\nhttp://i544.photobucket.com/albums/hh330/asterastrip/DBS/5.png&lt;/a&gt;\n\n\n\nInstructions using the subtitle streams\n\n----------------------------------------------------\nViewing the subtitles with VLC Player:\n----------------------------------------------------\n\nVideo--&gt;Subtitles Track--&gt;Select\n\nSubtitle Screenshot for VLC Player: &lt;a href=&quot;\nhttp://www.lookpic.com/files/1421.JPG&quot; rel=&quot;nofollow&quot; target=&quot;_NEW&quot;&gt;\nhttp://www.lookpic.com/files/1421.JPG&lt;/a&gt;\n\n--------------------------------------------------------------\nViewing the subtitles with Haali Media Splitter\n--------------------------------------------------------------\n\nRight click on Haali tray icon--&gt;Select subtitles\n\n**NOTE**\nVobSub &amp; VSFilter must be installed\n\nSubtitle Screenshot for Haali Media Splitter: &lt;a href=&quot;\nhttp://www.lookpic.com/files/2346.JPG&quot; rel=&quot;nofollow&quot; target=&quot;_NEW&quot;&gt;\nhttp://www.lookpic.com/files/2346.JPG&lt;/a&gt;\n\n\n\n                           Distributed By VGL","torrent":{"xt":"urn:btih:5208a267809e04e11b82d9db72695b110ab6648b","amp;dn":"Deep+Blue+Sea.1999.DVDRip.x264.AC3%5B5.1%5D-VGL","amp;tr":["udp%3A%2F%2Ftracker.openbittorrent.com%3A80","udp%3A%2F%2Fopen.demonii.com%3A1337","udp%3A%2F%2Ftracker.coppersurfer.tk%3A6969","udp%3A%2F%2Fexodus.desync.com%3A6969"],"infoHash":"5208a267809e04e11b82d9db72695b110ab6648b","infoHashBuffer":{"type":"Buffer","data":[82,8,162,103,128,158,4,225,27,130,217,219,114,105,91,17,10,182,100,139]},"announce":[],"urlList":[]}}